<svg width="30" height="265" viewBox="0 0 30 265" fill="none" xmlns="http://www.w3.org/2000/svg">
<path d="M13.495 145.714C13.7016 145.295 14.2984 145.295 14.505 145.714L17.179 151.132C17.261 151.298 17.4196 151.413 17.603 151.44L23.5822 152.309C24.0441 152.376 24.2286 152.944 23.8943 153.269L19.5677 157.487C19.435 157.616 19.3744 157.803 19.4058 157.985L20.4271 163.94C20.506 164.4 20.0232 164.751 19.6101 164.534L14.262 161.722C14.098 161.636 13.902 161.636 13.7379 161.722L8.38994 164.534C7.97681 164.751 7.49396 164.4 7.57286 163.94L8.59424 157.985C8.62557 157.803 8.56501 157.616 8.43229 157.487L4.10566 153.269C3.77143 152.944 3.95586 152.376 4.41775 152.309L10.397 151.44C10.5804 151.413 10.739 151.298 10.821 151.132L13.495 145.714Z" stroke="#44DD8A" stroke-width="2" stroke-linejoin="round"/>
<path d="M10.5725 8.85088L21.225 8.85073M21.225 8.85073L21.225 19.3517M21.225 8.85073L8.85065 21.2251" stroke="#44DD8A" stroke-width="2" stroke-linecap="round" stroke-linejoin="round"/>
<path d="M15.6706 69.0539L16.5985 68.014C17.7369 66.7381 19.7795 66.9039 20.6972 68.3468C21.5521 69.691 23.4093 69.9458 24.5946 68.8816L26.2764 67.3715M3.7236 69.3377L9.18108 68.2381C9.4708 68.1797 9.73682 68.037 9.94575 67.828L22.1628 55.6042C22.7486 55.0181 22.7482 54.0682 22.162 53.4826L19.5739 50.8975C18.9879 50.3121 18.0384 50.3125 17.4529 50.8984L5.23456 63.1234C5.02604 63.3321 4.88366 63.5975 4.82523 63.8867L3.7236 69.3377Z" stroke="#44DD8A" stroke-width="2" stroke-linecap="round" stroke-linejoin="round"/>
<path d="M5 109.005L5 113.616C5 114.314 5.26339 114.984 5.73223 115.478C6.20107 115.972 6.83696 116.25 7.5 116.25H22.5C23.163 116.25 23.7989 115.972 24.2678 115.478C24.7366 114.984 25 114.314 25 113.616V109.005M15.0014 93.75V108.678M15.0014 108.678L20.7157 102.974M15.0014 108.678L9.28711 102.974" stroke="#44DD8A" stroke-width="2" stroke-linecap="round" stroke-linejoin="round"/>
<path d="M24.3808 202C24.3808 208.213 19.3427 213.25 13.1279 213.25C6.9131 213.25 1.875 208.213 1.875 202C1.875 195.787 6.9131 190.75 13.1279 190.75C17.2931 190.75 20.9297 193.012 22.8754 196.375M21.2939 203.235L24.1071 200.422L26.9203 203.235M17.3438 205.068L13.125 203.661V197.781" stroke="#44DD8A" stroke-width="2" stroke-linecap="round" stroke-linejoin="round"/>
<path d="M9.375 247.293V247.188M15 247.293V247.188M20.625 247.293V247.188M18.0571 255.38L15 261.25L12.1875 255.38H6.5625C5.0092 255.38 3.75 254.121 3.75 252.568V241.563C3.75 240.009 5.0092 238.75 6.5625 238.75H23.4375C24.9908 238.75 26.25 240.009 26.25 241.562V252.568C26.25 254.121 24.9908 255.38 23.4375 255.38H18.0571Z" stroke="#44DD8A" stroke-width="2" stroke-linecap="round" stroke-linejoin="round"/>
</svg>
