<svg width="297" height="30" viewBox="0 0 297 30" fill="none" xmlns="http://www.w3.org/2000/svg">
<g clip-path="url(#clip0_0_1853)">
<path d="M150 15C150 6.7158 143.284 0 135 0C126.716 0 120 6.7158 120 15C120 22.0344 124.843 27.9372 131.377 29.5584V19.584H128.284V15H131.377V13.0248C131.377 7.9194 133.687 5.553 138.7 5.553C139.65 5.553 141.29 5.7396 141.961 5.9256V10.0806C141.607 10.0434 140.992 10.0248 140.228 10.0248C137.768 10.0248 136.818 10.9566 136.818 13.3788V15H141.718L140.876 19.584H136.818V29.8902C144.245 28.9932 150.001 22.6692 150.001 15H150Z" fill="white"/>
<path d="M140.875 19.5842L141.717 15.0002H136.817V13.379C136.817 10.9568 137.768 10.025 140.227 10.025C140.991 10.025 141.606 10.0436 141.96 10.0808V5.92582C141.289 5.73922 139.649 5.55322 138.699 5.55322C133.687 5.55322 131.376 7.91962 131.376 13.025V15.0002H128.283V19.5842H131.376V29.5586C132.536 29.8466 133.75 30.0002 134.999 30.0002C135.614 30.0002 136.221 29.9624 136.817 29.8904V19.5842H140.875H140.875Z" fill="#152237"/>
</g>
<path d="M193.908 2.37988H198.125L188.912 12.9092L199.75 27.2373H191.264L184.618 18.5474L177.012 27.2373H172.793L182.647 15.975L172.25 2.37988H180.951L186.959 10.3228L193.908 2.37988ZM192.428 24.7134H194.764L179.682 4.7713H177.174L192.428 24.7134Z" fill="white"/>
<g clip-path="url(#clip1_0_1853)">
<path d="M237 2.70117C241.008 2.70117 241.482 2.71875 243.059 2.78906C244.523 2.85352 245.314 3.09961 245.842 3.30469C246.539 3.57422 247.043 3.90234 247.564 4.42383C248.092 4.95117 248.414 5.44922 248.684 6.14648C248.889 6.67383 249.135 7.4707 249.199 8.92969C249.27 10.5117 249.287 10.9863 249.287 14.9883C249.287 18.9961 249.27 19.4707 249.199 21.0469C249.135 22.5117 248.889 23.3027 248.684 23.8301C248.414 24.5273 248.086 25.0313 247.564 25.5527C247.037 26.0801 246.539 26.4023 245.842 26.6719C245.314 26.877 244.518 27.123 243.059 27.1875C241.477 27.2578 241.002 27.2754 237 27.2754C232.992 27.2754 232.518 27.2578 230.941 27.1875C229.477 27.123 228.686 26.877 228.158 26.6719C227.461 26.4023 226.957 26.0742 226.436 25.5527C225.908 25.0254 225.586 24.5273 225.316 23.8301C225.111 23.3027 224.865 22.5059 224.801 21.0469C224.73 19.4648 224.713 18.9902 224.713 14.9883C224.713 10.9805 224.73 10.5059 224.801 8.92969C224.865 7.46484 225.111 6.67383 225.316 6.14648C225.586 5.44922 225.914 4.94531 226.436 4.42383C226.963 3.89648 227.461 3.57422 228.158 3.30469C228.686 3.09961 229.482 2.85352 230.941 2.78906C232.518 2.71875 232.992 2.70117 237 2.70117ZM237 0C232.928 0 232.418 0.0175781 230.818 0.0878906C229.225 0.158203 228.129 0.416016 227.18 0.785156C226.189 1.17187 225.352 1.68164 224.52 2.51953C223.682 3.35156 223.172 4.18945 222.785 5.17383C222.416 6.12891 222.158 7.21875 222.088 8.8125C222.018 10.418 222 10.9277 222 15C222 19.0723 222.018 19.582 222.088 21.1816C222.158 22.7754 222.416 23.8711 222.785 24.8203C223.172 25.8105 223.682 26.6484 224.52 27.4805C225.352 28.3125 226.189 28.8281 227.174 29.209C228.129 29.5781 229.219 29.8359 230.812 29.9062C232.412 29.9766 232.922 29.9941 236.994 29.9941C241.066 29.9941 241.576 29.9766 243.176 29.9062C244.77 29.8359 245.865 29.5781 246.814 29.209C247.799 28.8281 248.637 28.3125 249.469 27.4805C250.301 26.6484 250.816 25.8105 251.197 24.8262C251.566 23.8711 251.824 22.7813 251.895 21.1875C251.965 19.5879 251.982 19.0781 251.982 15.0059C251.982 10.9336 251.965 10.4238 251.895 8.82422C251.824 7.23047 251.566 6.13477 251.197 5.18555C250.828 4.18945 250.318 3.35156 249.48 2.51953C248.648 1.6875 247.811 1.17188 246.826 0.791016C245.871 0.421875 244.781 0.164062 243.188 0.09375C241.582 0.0175781 241.072 0 237 0Z" fill="white"/>
<path d="M237 7.29492C232.746 7.29492 229.295 10.7461 229.295 15C229.295 19.2539 232.746 22.7051 237 22.7051C241.254 22.7051 244.705 19.2539 244.705 15C244.705 10.7461 241.254 7.29492 237 7.29492ZM237 19.998C234.24 19.998 232.002 17.7598 232.002 15C232.002 12.2402 234.24 10.002 237 10.002C239.76 10.002 241.998 12.2402 241.998 15C241.998 17.7598 239.76 19.998 237 19.998Z" fill="white"/>
<path d="M246.809 6.99024C246.809 7.98633 246 8.78907 245.01 8.78907C244.014 8.78907 243.211 7.98047 243.211 6.99024C243.211 5.99414 244.02 5.19141 245.01 5.19141C246 5.19141 246.809 6 246.809 6.99024Z" fill="white"/>
</g>
<path d="M294.785 0H269.215C268.627 0 268.064 0.233322 267.649 0.648637C267.233 1.06395 267 1.62724 267 2.21458V27.7854C267 28.3728 267.233 28.9361 267.649 29.3514C268.064 29.7667 268.627 30 269.215 30H294.785C295.373 30 295.936 29.7667 296.351 29.3514C296.767 28.9361 297 28.3728 297 27.7854V2.21458C297 1.62724 296.767 1.06395 296.351 0.648637C295.936 0.233322 295.373 0 294.785 0ZM275.942 25.5562H271.431V11.2292H275.942V25.5562ZM273.683 9.24375C273.172 9.24087 272.672 9.08649 272.248 8.80011C271.824 8.51372 271.495 8.10816 271.301 7.63461C271.107 7.16106 271.058 6.64074 271.16 6.13932C271.262 5.6379 271.51 5.17785 271.873 4.81723C272.236 4.45661 272.697 4.21158 273.199 4.11308C273.701 4.01457 274.221 4.06699 274.694 4.26373C275.166 4.46047 275.569 4.79271 275.853 5.21852C276.137 5.64432 276.288 6.14461 276.288 6.65625C276.292 6.99879 276.228 7.3388 276.099 7.65601C275.969 7.97321 275.777 8.26113 275.534 8.50258C275.291 8.74404 275.002 8.9341 274.684 9.06144C274.366 9.18877 274.026 9.25078 273.683 9.24375ZM292.567 25.5688H288.058V17.7417C288.058 15.4333 287.077 14.7208 285.81 14.7208C284.473 14.7208 283.16 15.7292 283.16 17.8V25.5688H278.65V11.2396H282.988V13.225H283.046C283.481 12.3438 285.006 10.8375 287.333 10.8375C289.85 10.8375 292.569 12.3313 292.569 16.7063L292.567 25.5688Z" fill="white"/>
<path d="M4.89679 20.09C4.11679 20.09 3.36679 19.965 2.64679 19.715C1.93679 19.455 1.38679 19.125 0.996794 18.725L1.43179 17.87C1.80179 18.23 2.29679 18.535 2.91679 18.785C3.54679 19.025 4.20679 19.145 4.89679 19.145C5.55679 19.145 6.09179 19.065 6.50179 18.905C6.92179 18.735 7.22679 18.51 7.41679 18.23C7.61679 17.95 7.71679 17.64 7.71679 17.3C7.71679 16.89 7.59679 16.56 7.35679 16.31C7.12679 16.06 6.82179 15.865 6.44179 15.725C6.06179 15.575 5.64179 15.445 5.18179 15.335C4.72179 15.225 4.26179 15.11 3.80179 14.99C3.34179 14.86 2.91679 14.69 2.52679 14.48C2.14679 14.27 1.83679 13.995 1.59679 13.655C1.36679 13.305 1.25179 12.85 1.25179 12.29C1.25179 11.77 1.38679 11.295 1.65679 10.865C1.93679 10.425 2.36179 10.075 2.93179 9.815C3.50179 9.545 4.23179 9.41 5.12179 9.41C5.71179 9.41 6.29679 9.495 6.87679 9.665C7.45679 9.825 7.95679 10.05 8.37679 10.34L8.00179 11.225C7.55179 10.925 7.07179 10.705 6.56179 10.565C6.06179 10.425 5.57679 10.355 5.10679 10.355C4.47679 10.355 3.95679 10.44 3.54679 10.61C3.13679 10.78 2.83179 11.01 2.63179 11.3C2.44179 11.58 2.34679 11.9 2.34679 12.26C2.34679 12.67 2.46179 13 2.69179 13.25C2.93179 13.5 3.24179 13.695 3.62179 13.835C4.01179 13.975 4.43679 14.1 4.89679 14.21C5.35679 14.32 5.81179 14.44 6.26179 14.57C6.72179 14.7 7.14179 14.87 7.52179 15.08C7.91179 15.28 8.22179 15.55 8.45179 15.89C8.69179 16.23 8.81179 16.675 8.81179 17.225C8.81179 17.735 8.67179 18.21 8.39179 18.65C8.11179 19.08 7.68179 19.43 7.10179 19.7C6.53179 19.96 5.79679 20.09 4.89679 20.09ZM14.0353 20.075C13.3653 20.075 12.7803 19.95 12.2803 19.7C11.7803 19.45 11.3903 19.075 11.1103 18.575C10.8403 18.075 10.7053 17.45 10.7053 16.7V12.125H11.7703V16.58C11.7703 17.42 11.9753 18.055 12.3853 18.485C12.8053 18.905 13.3903 19.115 14.1403 19.115C14.6903 19.115 15.1653 19.005 15.5653 18.785C15.9753 18.555 16.2853 18.225 16.4953 17.795C16.7153 17.365 16.8253 16.85 16.8253 16.25V12.125H17.8903V20H16.8703V17.84L17.0353 18.23C16.7853 18.81 16.3953 19.265 15.8653 19.595C15.3453 19.915 14.7353 20.075 14.0353 20.075ZM20.6334 20V12.125H21.6984V20H20.6334ZM21.1734 10.385C20.9534 10.385 20.7684 10.31 20.6184 10.16C20.4684 10.01 20.3934 9.83 20.3934 9.62C20.3934 9.41 20.4684 9.235 20.6184 9.095C20.7684 8.945 20.9534 8.87 21.1734 8.87C21.3934 8.87 21.5784 8.94 21.7284 9.08C21.8784 9.22 21.9534 9.395 21.9534 9.605C21.9534 9.825 21.8784 10.01 21.7284 10.16C21.5884 10.31 21.4034 10.385 21.1734 10.385ZM26.4618 20L22.9668 12.125H24.0768L27.2868 19.43H26.7618L30.0168 12.125H31.0668L27.5568 20H26.4618ZM35.4669 20.075C34.6469 20.075 33.9269 19.905 33.3069 19.565C32.6869 19.215 32.2019 18.74 31.8519 18.14C31.5019 17.53 31.3269 16.835 31.3269 16.055C31.3269 15.275 31.4919 14.585 31.8219 13.985C32.1619 13.385 32.6219 12.915 33.2019 12.575C33.7919 12.225 34.4519 12.05 35.1819 12.05C35.9219 12.05 36.5769 12.22 37.1469 12.56C37.7269 12.89 38.1819 13.36 38.5119 13.97C38.8419 14.57 39.0069 15.265 39.0069 16.055C39.0069 16.105 39.0019 16.16 38.9919 16.22C38.9919 16.27 38.9919 16.325 38.9919 16.385H32.1369V15.59H38.4219L38.0019 15.905C38.0019 15.335 37.8769 14.83 37.6269 14.39C37.3869 13.94 37.0569 13.59 36.6369 13.34C36.2169 13.09 35.7319 12.965 35.1819 12.965C34.6419 12.965 34.1569 13.09 33.7269 13.34C33.2969 13.59 32.9619 13.94 32.7219 14.39C32.4819 14.84 32.3619 15.355 32.3619 15.935V16.1C32.3619 16.7 32.4919 17.23 32.7519 17.69C33.0219 18.14 33.3919 18.495 33.8619 18.755C34.3419 19.005 34.8869 19.13 35.4969 19.13C35.9769 19.13 36.4219 19.045 36.8319 18.875C37.2519 18.705 37.6119 18.445 37.9119 18.095L38.5119 18.785C38.1619 19.205 37.7219 19.525 37.1919 19.745C36.6719 19.965 36.0969 20.075 35.4669 20.075ZM40.0214 20V19.295L45.2714 12.65L45.4964 13.01H40.1114V12.125H46.3364V12.815L41.1014 19.475L40.8314 19.115H46.4414V20H40.0214ZM51.4283 16.4V15.47H55.3583V16.4H51.4283ZM65.2366 12.05C65.8766 12.05 66.4366 12.175 66.9166 12.425C67.4066 12.665 67.7866 13.035 68.0566 13.535C68.3366 14.035 68.4766 14.665 68.4766 15.425V20H67.4116V15.53C67.4116 14.7 67.2016 14.075 66.7816 13.655C66.3716 13.225 65.7916 13.01 65.0416 13.01C64.4816 13.01 63.9916 13.125 63.5716 13.355C63.1616 13.575 62.8416 13.9 62.6116 14.33C62.3916 14.75 62.2816 15.26 62.2816 15.86V20H61.2166V12.125H62.2366V14.285L62.0716 13.88C62.3216 13.31 62.7216 12.865 63.2716 12.545C63.8216 12.215 64.4766 12.05 65.2366 12.05ZM74.3384 20.075C73.5784 20.075 72.8934 19.905 72.2834 19.565C71.6834 19.215 71.2084 18.74 70.8584 18.14C70.5084 17.53 70.3334 16.835 70.3334 16.055C70.3334 15.265 70.5084 14.57 70.8584 13.97C71.2084 13.37 71.6834 12.9 72.2834 12.56C72.8834 12.22 73.5684 12.05 74.3384 12.05C75.1184 12.05 75.8084 12.22 76.4084 12.56C77.0184 12.9 77.4934 13.37 77.8334 13.97C78.1834 14.57 78.3584 15.265 78.3584 16.055C78.3584 16.835 78.1834 17.53 77.8334 18.14C77.4934 18.74 77.0184 19.215 76.4084 19.565C75.7984 19.905 75.1084 20.075 74.3384 20.075ZM74.3384 19.13C74.9084 19.13 75.4134 19.005 75.8534 18.755C76.2934 18.495 76.6384 18.135 76.8884 17.675C77.1484 17.205 77.2784 16.665 77.2784 16.055C77.2784 15.435 77.1484 14.895 76.8884 14.435C76.6384 13.975 76.2934 13.62 75.8534 13.37C75.4134 13.11 74.9134 12.98 74.3534 12.98C73.7934 12.98 73.2934 13.11 72.8534 13.37C72.4134 13.62 72.0634 13.975 71.8034 14.435C71.5434 14.895 71.4134 15.435 71.4134 16.055C71.4134 16.665 71.5434 17.205 71.8034 17.675C72.0634 18.135 72.4134 18.495 72.8534 18.755C73.2934 19.005 73.7884 19.13 74.3384 19.13ZM83.5627 20.075C82.8927 20.075 82.3077 19.95 81.8077 19.7C81.3077 19.45 80.9177 19.075 80.6377 18.575C80.3677 18.075 80.2327 17.45 80.2327 16.7V12.125H81.2977V16.58C81.2977 17.42 81.5027 18.055 81.9127 18.485C82.3327 18.905 82.9177 19.115 83.6677 19.115C84.2177 19.115 84.6927 19.005 85.0927 18.785C85.5027 18.555 85.8127 18.225 86.0227 17.795C86.2427 17.365 86.3527 16.85 86.3527 16.25V12.125H87.4177V20H86.3977V17.84L86.5627 18.23C86.3127 18.81 85.9227 19.265 85.3927 19.595C84.8727 19.915 84.2627 20.075 83.5627 20.075ZM92.2758 20.075C91.6258 20.075 91.0108 19.985 90.4308 19.805C89.8508 19.615 89.3958 19.38 89.0658 19.1L89.5458 18.26C89.8658 18.5 90.2758 18.71 90.7758 18.89C91.2758 19.06 91.8008 19.145 92.3508 19.145C93.1008 19.145 93.6408 19.03 93.9708 18.8C94.3008 18.56 94.4658 18.245 94.4658 17.855C94.4658 17.565 94.3708 17.34 94.1808 17.18C94.0008 17.01 93.7608 16.885 93.4608 16.805C93.1608 16.715 92.8258 16.64 92.4558 16.58C92.0858 16.52 91.7158 16.45 91.3458 16.37C90.9858 16.29 90.6558 16.175 90.3558 16.025C90.0558 15.865 89.8108 15.65 89.6208 15.38C89.4408 15.11 89.3508 14.75 89.3508 14.3C89.3508 13.87 89.4708 13.485 89.7108 13.145C89.9508 12.805 90.3008 12.54 90.7608 12.35C91.2308 12.15 91.8008 12.05 92.4708 12.05C92.9808 12.05 93.4908 12.12 94.0008 12.26C94.5108 12.39 94.9308 12.565 95.2608 12.785L94.7958 13.64C94.4458 13.4 94.0708 13.23 93.6708 13.13C93.2708 13.02 92.8708 12.965 92.4708 12.965C91.7608 12.965 91.2358 13.09 90.8958 13.34C90.5658 13.58 90.4008 13.89 90.4008 14.27C90.4008 14.57 90.4908 14.805 90.6708 14.975C90.8608 15.145 91.1058 15.28 91.4058 15.38C91.7158 15.47 92.0508 15.545 92.4108 15.605C92.7808 15.665 93.1458 15.74 93.5058 15.83C93.8758 15.91 94.2108 16.025 94.5108 16.175C94.8208 16.315 95.0658 16.52 95.2458 16.79C95.4358 17.05 95.5308 17.395 95.5308 17.825C95.5308 18.285 95.4008 18.685 95.1408 19.025C94.8908 19.355 94.5208 19.615 94.0308 19.805C93.5508 19.985 92.9658 20.075 92.2758 20.075Z" fill="white"/>
<defs>
<clipPath id="clip0_0_1853">
<rect width="30" height="30" fill="white" transform="translate(120)"/>
</clipPath>
<clipPath id="clip1_0_1853">
<rect width="30" height="30" fill="white" transform="translate(222)"/>
</clipPath>
</defs>
</svg>
